<svg height="512pt" viewBox="-35 0 512 512" width="512pt" xmlns="http://www.w3.org/2000/svg"><path d="m425.515625 66.050781c-19.613281-23.535156-52.050781-23.992187-80.714844-1.132812-29.179687 23.265625-51.546875 64.726562-52.484375 66.480469-1.390625 2.601562-1.238281 5.757812.398438 8.210937l16 24c1.480468 2.226563 3.980468 3.5625 6.65625 3.5625 1.75 0 43.238281-.191406 77.875-16.785156 23.9375-11.46875 39.835937-28.007813 43.621094-45.375 1.996093-9.164063 1.648437-23.359375-11.351563-38.960938zm0 0" fill="#e1eaa8"/><path d="m425.515625 66.050781c-7.664063-9.199219-17.292969-14.855469-27.886719-16.988281 3.40625 2.46875 6.589844 5.429688 9.488282 8.90625 13 15.601562 13.347656 29.796875 11.351562 38.960938-3.785156 17.367187-19.6875 33.90625-43.621094 45.375-25.6875 12.304687-55.136718 15.589843-69.359375 16.464843l3.226563 4.839844c1.480468 2.226563 3.980468 3.5625 6.65625 3.5625 1.75 0 43.238281-.191406 77.875-16.785156 23.9375-11.46875 39.835937-28.007813 43.621094-45.375 1.996093-9.164063 1.648437-23.359375-11.351563-38.960938zm0 0" fill="#d2df7c"/><path d="m170.917969 161.746094c-.699219-1.980469-17.460938-48.886719-50.066407-79.570313-19.597656-18.441406-41.675781-27.664062-62.183593-25.980469-17.585938 1.449219-32.949219 10.640626-45.660157 27.316407-11.324218 14.855469-15.363281 31.945312-11.6875 49.417969 5.71875 27.171874 27.605469 47.816406 46.183594 58.074218 21.902344 12.097656 45.386719 14.597656 63.839844 14.597656 7.835938 0 14.769531-.449218 20.28125-.808593 3.191406-.207031 5.949219-.386719 7.746094-.386719 2.515625 0 4.886718-1.1875 6.398437-3.203125l24-32c1.605469-2.136719 2.035157-4.933594 1.148438-7.457031zm0 0" fill="#d2df7c"/><path d="m143.34375 189.601562c-18.453125 0-41.9375-2.5-63.839844-14.597656-18.578125-10.257812-40.464844-30.902344-46.183594-58.074218-3.675781-17.472657.363282-34.5625 11.6875-49.417969 3.097657-4.066407 6.359376-7.675781 9.765626-10.851563-15.964844 2.410156-30 11.417969-41.765626 26.851563-11.324218 14.855469-15.363281 31.941406-11.6875 49.417969 5.71875 27.171874 27.605469 47.8125 46.183594 58.074218 21.902344 12.097656 45.386719 14.597656 63.839844 14.597656 7.835938 0 14.769531-.453124 20.28125-.8125 3.191406-.207031 5.949219-.386718 7.746094-.386718 2.515625 0 4.886718-1.183594 6.398437-3.199219l8.917969-11.886719c-3.496094.164063-7.296875.285156-11.34375.285156zm0 0" fill="#c2d450"/><path d="m311.136719 38.429688c-18.777344-25.5-46.960938-38.429688-83.765625-38.429688-37.390625 0-65.925782 13.082031-84.8125 38.882812-24.144532 32.980469-31.886719 85.535157-23.007813 156.199219 6.507813 51.800781 19.636719 93.582031 20.191407 95.335938 1.054687 3.324219 4.140624 5.582031 7.628906 5.582031h160c3.503906 0 6.597656-2.28125 7.640625-5.625.546875-1.761719 13.460937-43.699219 19.730469-95.628906 8.550781-70.84375.609374-123.4375-23.605469-156.316406zm0 0" fill="#c2d450"/><path d="m189.042969 290.417969c-.558594-1.753907-13.6875-43.535157-20.195313-95.335938-8.875-70.664062-1.136718-123.21875 23.007813-156.199219 14.46875-19.765624 34.609375-32.058593 60.046875-36.730468-7.695313-1.425782-15.871094-2.152344-24.53125-2.152344-37.390625 0-65.925782 13.082031-84.8125 38.882812-24.144532 32.980469-31.886719 85.535157-23.007813 156.199219 6.507813 51.800781 19.636719 93.582031 20.191407 95.335938 1.054687 3.324219 4.140624 5.582031 7.628906 5.582031h49.296875c-3.488281 0-6.570313-2.257812-7.625-5.582031zm0 0" fill="#b3c924"/><g fill="#e8e570"><path d="m411.371094 160c-2.046875 0-4.097656-.78125-5.660156-2.34375l-8-8c-3.125-3.125-3.125-8.1875 0-11.3125s8.191406-3.125 11.316406 0l8 8c4.925781 4.925781 1.335937 13.65625-5.65625 13.65625zm0 0"/><path d="m419.375 80.003906c-2.933594 0-5.757812-1.621094-7.160156-4.425781-1.976563-3.953125-.375-8.757813 3.578125-10.734375l16-8c3.953125-1.976562 8.757812-.371094 10.734375 3.578125 1.972656 3.953125.375 8.757813-3.578125 10.734375l-16 8c-1.152344.574219-2.371094.847656-3.574219.847656zm0 0"/><path d="m355.371094 72c-4.417969 0-8-3.582031-8-8v-16c0-4.417969 3.582031-8 8-8 4.417968 0 8 3.582031 8 8v16c0 4.417969-3.582032 8-8 8zm0 0"/><path d="m395.363281 104.003906c-1.203125 0-2.421875-.273437-3.570312-.847656l-16-8c-3.953125-1.976562-5.554688-6.78125-3.578125-10.734375 1.976562-3.953125 6.78125-5.554687 10.734375-3.578125l16 8c3.949219 1.976562 5.550781 6.78125 3.578125 10.734375-1.402344 2.804687-4.230469 4.425781-7.164063 4.425781zm0 0"/><path d="m355.363281 136.003906c-1.203125 0-2.421875-.273437-3.570312-.847656-3.953125-1.976562-5.554688-6.78125-3.578125-10.734375l8-16c1.976562-3.949219 6.78125-5.554687 10.734375-3.578125 3.949219 1.976562 5.550781 6.78125 3.578125 10.734375l-8 16c-1.402344 2.804687-4.230469 4.425781-7.164063 4.425781zm0 0"/><path d="m291.371094 32c-2.046875 0-4.097656-.78125-5.660156-2.34375-3.125-3.125-3.125-8.1875 0-11.3125l16-16c3.125-3.125 8.191406-3.125 11.316406 0s3.125 8.1875 0 11.3125l-16 16c-1.5625 1.5625-3.609375 2.34375-5.65625 2.34375zm0 0"/><path d="m347.363281 216.003906c-1.203125 0-2.421875-.273437-3.570312-.847656l-16-8c-3.953125-1.976562-5.554688-6.78125-3.578125-10.734375 1.976562-3.953125 6.78125-5.554687 10.734375-3.578125l16 8c3.164062 1.582031 4.949219 5.179688 4.28125 8.660156-.714844 3.726563-4.074219 6.5-7.867188 6.5zm0 0"/><path d="m91.363281 72.003906c-1.203125 0-2.421875-.273437-3.570312-.847656-3.953125-1.976562-5.554688-6.78125-3.578125-10.734375l8-16c1.976562-3.953125 6.78125-5.554687 10.734375-3.578125 3.949219 1.976562 5.550781 6.78125 3.578125 10.734375l-8 16c-1.402344 2.804687-4.230469 4.425781-7.164063 4.425781zm0 0"/><path d="m27.371094 80c-2.046875 0-4.097656-.78125-5.660156-2.34375l-8-8c-3.125-3.125-3.125-8.1875 0-11.3125s8.191406-3.125 11.316406 0l8 8c3.125 3.125 3.125 8.1875 0 11.3125-1.5625 1.5625-3.609375 2.34375-5.65625 2.34375zm0 0"/><path d="m11.363281 184.003906c-1.203125 0-2.421875-.273437-3.570312-.847656-3.953125-1.976562-5.554688-6.78125-3.578125-10.734375l8-16c1.976562-3.953125 6.78125-5.554687 10.734375-3.578125 3.949219 1.976562 5.550781 6.78125 3.578125 10.734375l-8 16c-1.402344 2.804687-4.230469 4.425781-7.164063 4.425781zm0 0"/><path d="m51.363281 120.003906c-1.203125 0-2.421875-.273437-3.570312-.847656l-16-8c-3.953125-1.976562-5.554688-6.78125-3.578125-10.734375 1.976562-3.953125 6.78125-5.554687 10.734375-3.578125l16 8c3.949219 1.976562 5.550781 6.78125 3.578125 10.734375-1.402344 2.804687-4.230469 4.425781-7.164063 4.425781zm0 0"/><path d="m67.363281 176.003906c-1.203125 0-2.421875-.273437-3.570312-.847656-3.953125-1.976562-5.554688-6.78125-3.578125-10.734375l8-16c1.976562-3.953125 6.78125-5.554687 10.734375-3.578125 3.949219 1.976562 5.550781 6.78125 3.578125 10.734375l-8 16c-1.402344 2.804687-4.230469 4.425781-7.164063 4.425781zm0 0"/><path d="m83.375 128.003906c-2.933594 0-5.757812-1.621094-7.160156-4.425781-1.976563-3.953125-.375-8.757813 3.578125-10.734375l16-8c3.953125-1.976562 8.757812-.375 10.734375 3.578125 1.972656 3.953125.375 8.757813-3.578125 10.734375l-16 8c-1.152344.574219-2.371094.847656-3.574219.847656zm0 0"/><path d="m155.371094 40c-2.046875 0-4.097656-.78125-5.660156-2.34375l-16-16c-3.125-3.125-3.125-8.1875 0-11.3125s8.191406-3.125 11.316406 0l16 16c3.125 3.125 3.125 8.1875 0 11.3125-1.5625 1.5625-3.609375 2.34375-5.65625 2.34375zm0 0"/><path d="m115.375 240.003906c-3.792969 0-7.148438-2.773437-7.863281-6.5-.667969-3.476562 1.113281-7.078125 4.28125-8.660156l16-8c3.953125-1.976562 8.757812-.371094 10.734375 3.578125 1.972656 3.953125.375 8.757813-3.578125 10.734375l-16 8c-1.152344.574219-2.371094.847656-3.574219.847656zm0 0"/><path d="m251.371094 64c-2.046875 0-4.097656-.78125-5.660156-2.34375l-16-16c-3.125-3.125-3.125-8.1875 0-11.3125s8.191406-3.125 11.316406 0l16 16c3.125 3.125 3.125 8.1875 0 11.3125-1.5625 1.5625-3.609375 2.34375-5.65625 2.34375zm0 0"/><path d="m171.375 80.003906c-2.933594 0-5.757812-1.621094-7.160156-4.425781-1.976563-3.953125-.375-8.757813 3.578125-10.734375l16-8c3.953125-1.976562 8.757812-.371094 10.734375 3.578125 1.972656 3.953125.375 8.757813-3.578125 10.734375l-16 8c-1.152344.574219-2.371094.847656-3.574219.847656zm0 0"/><path d="m243.371094 112c-2.046875 0-4.097656-.78125-5.660156-2.34375-3.125-3.125-3.125-8.1875 0-11.3125l8-8c3.125-3.125 8.191406-3.125 11.316406 0s3.125 8.1875 0 11.3125l-8 8c-1.5625 1.5625-3.609375 2.34375-5.65625 2.34375zm0 0"/><path d="m299.363281 104.003906c-1.203125 0-2.421875-.273437-3.570312-.847656-3.953125-1.976562-5.554688-6.78125-3.578125-10.734375l8-16c1.976562-3.953125 6.78125-5.554687 10.734375-3.578125 3.949219 1.976562 5.550781 6.78125 3.578125 10.734375l-8 16c-1.402344 2.804687-4.230469 4.425781-7.164063 4.425781zm0 0"/><path d="m163.375 136.003906c-2.933594 0-5.757812-1.621094-7.160156-4.425781l-8-16c-1.976563-3.953125-.375-8.757813 3.578125-10.734375s8.757812-.375 10.734375 3.578125l8 16c1.972656 3.953125.375 8.757813-3.578125 10.734375-1.152344.574219-2.371094.847656-3.574219.847656zm0 0"/><path d="m195.363281 168.003906c-1.203125 0-2.421875-.273437-3.570312-.847656-3.953125-1.976562-5.554688-6.78125-3.578125-10.734375l8-16c1.976562-3.949219 6.78125-5.554687 10.734375-3.578125 3.949219 1.976562 5.550781 6.78125 3.578125 10.734375l-8 16c-1.402344 2.804687-4.230469 4.425781-7.164063 4.425781zm0 0"/><path d="m163.363281 192.003906c-1.203125 0-2.421875-.273437-3.570312-.847656l-16-8c-3.953125-1.976562-5.554688-6.78125-3.578125-10.734375 1.976562-3.949219 6.78125-5.554687 10.734375-3.578125l16 8c3.949219 1.976562 5.550781 6.78125 3.578125 10.734375-1.402344 2.804687-4.230469 4.425781-7.164063 4.425781zm0 0"/><path d="m259.375 168.003906c-2.933594 0-5.757812-1.621094-7.160156-4.425781-1.976563-3.953125-.375-8.757813 3.578125-10.734375l16-8c3.953125-1.976562 8.757812-.371094 10.734375 3.578125 1.972656 3.953125.375 8.757813-3.578125 10.734375l-16 8c-1.152344.574219-2.371094.847656-3.574219.847656zm0 0"/><path d="m227.363281 216.003906c-1.203125 0-2.421875-.273437-3.570312-.847656l-16-8c-3.953125-1.976562-5.554688-6.78125-3.578125-10.734375 1.976562-3.953125 6.78125-5.554687 10.734375-3.578125l16 8c3.949219 1.976562 5.550781 6.78125 3.578125 10.734375-1.402344 2.804687-4.230469 4.425781-7.164063 4.425781zm0 0"/><path d="m299.371094 224c-2.046875 0-4.097656-.78125-5.660156-2.34375l-8-8c-3.125-3.125-3.125-8.1875 0-11.3125s8.191406-3.125 11.316406 0l8 8c3.125 3.125 3.125 8.1875 0 11.3125-1.5625 1.5625-3.609375 2.34375-5.65625 2.34375zm0 0"/><path d="m187.375 248.003906c-2.933594 0-5.757812-1.621094-7.160156-4.425781l-8-16c-1.976563-3.953125-.375-8.757813 3.578125-10.734375s8.757812-.371094 10.734375 3.578125l8 16c1.972656 3.953125.375 8.757813-3.578125 10.734375-1.152344.574219-2.371094.847656-3.574219.847656zm0 0"/></g><path d="m345.355469 298.691406c-1.519531-1.710937-3.699219-2.691406-5.984375-2.691406h-224c-2.289063 0-4.464844.980469-5.984375 2.691406-1.519531 1.710938-2.230469 3.992188-1.957031 6.261719l24 200c.480468 4.019531 3.890624 7.046875 7.941406 7.046875h176c4.050781 0 7.460937-3.027344 7.945312-7.046875l24-200c.269532-2.269531-.445312-4.550781-1.960937-6.261719zm0 0" fill="#e98f6d"/><path d="m155.425781 336.953125c-.5625-4.691406 3.222657-8.953125 7.945313-8.953125h181.175781l2.765625-23.046875c.273438-2.269531-.441406-4.550781-1.957031-6.261719-1.519531-1.710937-3.699219-2.691406-5.984375-2.691406h-224c-2.289063 0-4.46875.980469-5.984375 2.691406-1.519531 1.710938-2.230469 3.992188-1.957031 6.261719l24 200c.480468 4.019531 3.890624 7.046875 7.941406 7.046875h37.0625zm0 0" fill="#e37349"/><path d="m363.371094 248h-272c-4.417969 0-8 3.582031-8 8v48c0 4.417969 3.582031 8 8 8h272c4.417968 0 8-3.582031 8-8v-48c0-4.417969-3.582032-8-8-8zm0 0" fill="#eeab92"/><path d="m139.371094 304v-48c0-4.417969 3.582031-8 8-8h-56c-4.417969 0-8 3.582031-8 8v48c0 4.417969 3.582031 8 8 8h56c-4.417969 0-8-3.582031-8-8zm0 0" fill="#e98f6d"/></svg>