<?xml version="1.0" encoding="iso-8859-1"?>
<!-- Generator: Adobe Illustrator 19.0.0, SVG Export Plug-In . SVG Version: 6.00 Build 0)  -->
<svg version="1.1" id="Capa_1" xmlns="http://www.w3.org/2000/svg" xmlns:xlink="http://www.w3.org/1999/xlink" x="0px" y="0px"
	 viewBox="0 0 512 512" style="enable-background:new 0 0 512 512;" xml:space="preserve">
<circle style="fill:#FFA733;" cx="214.103" cy="162.769" r="71.865"/>
<g>
	<path style="fill:#FF9811;" d="M206.094,91.363c-35.915,3.986-63.851,34.428-63.851,71.406c0,39.688,32.174,71.862,71.862,71.862
		c1.442,0,2.871-0.055,4.293-0.139C184.947,171.673,197.371,116.043,206.094,91.363z"/>
	<circle style="fill:#FF9811;" cx="243.545" cy="127.382" r="7.726"/>
	<circle style="fill:#FF9811;" cx="214.103" cy="123.117" r="7.726"/>
</g>
<path style="fill:#FFE477;" d="M405.672,42.52l-24.07-4.52c-27.538,54.046-108.389,182.823-262.614,205.968
	c0.705,0.606,138.211,84.196,237.235-28.924C421.323,140.677,416.569,77.251,405.672,42.52z"/>
<path style="fill:#FFD422;" d="M394.713,40.462L394.713,40.462l-13.11-2.462c-27.538,54.046-108.389,182.823-262.614,205.968
	C118.989,243.968,337.757,313.439,394.713,40.462z"/>
<path style="fill:#CC7400;" d="M381.602,37.998l2.824-30.533c0.436-4.708,4.742-8.08,9.417-7.372l14.795,2.239
	c5.016,0.759,8.155,5.835,6.592,10.661l-9.558,29.525L381.602,37.998z"/>
<path style="fill:#AA6100;" d="M384.426,7.466l-2.823,30.533l13.111,2.462c0-0.001,3.923-24.199,3.905-24.199
	C401.665,1.713,408.64,2.333,408.64,2.333l-14.795-2.239C389.167-0.613,384.86,2.759,384.426,7.466z"/>
<path style="fill:#677743;" d="M177.821,226.245c1.903,34.623-24.622,64.234-59.246,66.137s-64.234-24.622-66.137-59.246
	s21.659-118.163,56.281-120.066C143.344,111.168,175.918,191.622,177.821,226.245z"/>
<path style="fill:#576335;" d="M118.576,292.381c11.669-0.642,22.411-4.44,31.462-10.507
	c-43.781-53.988-34.498-128.378-26.261-164.692c-4.914-2.877-9.962-4.391-15.056-4.11c-34.623,1.903-58.185,85.442-56.281,120.066
	C54.342,267.759,83.953,294.285,118.576,292.381z"/>
<path style="fill:#CAE266;" d="M249.778,145.773c-6.135,2.057-11.696,5.099-16.597,8.927c-4.481,3.498-9.975,5.34-15.66,5.251
	c-6.218-0.099-12.488,0.826-18.624,2.882c-32.454,10.881-48.836,49.308-36.591,85.827s48.479,57.305,80.933,46.423
	c6.135-2.057,11.696-5.099,16.597-8.925c4.481-3.499,9.975-5.34,15.66-5.251c6.218,0.099,12.488-0.826,18.624-2.882
	c32.454-10.881,48.836-49.308,36.591-85.827C318.465,155.676,282.231,134.891,249.778,145.773z"/>
<path style="fill:#BCCE51;" d="M306.291,272.202c-63.271-27.472-60.246-103.909-57.965-125.908
	c-5.561,2.037-10.636,4.883-15.146,8.404c-4.481,3.498-9.975,5.34-15.66,5.251c-6.218-0.099-12.488,0.826-18.624,2.882
	c-32.453,10.881-48.836,49.308-36.591,85.827s48.479,57.305,80.933,46.423c6.135-2.057,11.696-5.099,16.597-8.927
	c4.481-3.499,9.975-5.34,15.66-5.251c6.218,0.099,12.488-0.826,18.624-2.882C298.481,276.562,302.541,274.587,306.291,272.202z"/>
<path style="fill:#57565C;" d="M225.262,173.735l-8.65-18.626c-1.798-3.87-0.117-8.465,3.753-10.262
	c3.872-1.8,8.465-0.117,10.262,3.753l8.65,18.626c1.798,3.87,0.117,8.465-3.753,10.262
	C234.47,177.977,229.14,180.587,225.262,173.735z"/>
<path style="fill:#91DC5A;" d="M447.811,181.864c2.568-5.503,4.35-11.362,4.951-17.405c1.094-11.025-0.953-25.839-16.649-34.506
	c-15.694-8.666-29.319-2.513-38.065,4.283c-4.848,3.766-8.848,8.484-12.206,13.624c-6.737,10.315-16.984,17.826-28.815,21.612
	c-17.099,5.471-32.108,17.591-40.789,35.149c-16.159,32.678-3.665,72.8,28.145,90.608c33.379,18.686,75.542,6.622,94.007-26.819
	c8.955-16.218,10.68-34.472,6.253-51.06C441.476,205.487,442.648,192.925,447.811,181.864z"/>
<path style="fill:#6DC82A;" d="M398.047,134.237c-4.848,3.766-8.848,8.484-12.206,13.623c-6.737,10.315-16.984,17.826-28.815,21.612
	c-17.099,5.471-32.108,17.591-40.789,35.149c-16.158,32.678-3.665,72.8,28.145,90.608c2.3,1.288,4.645,2.415,7.018,3.413
	c0.348-59.928,27.959-86.826,44.324-97.687c6.998-4.645,12.206-11.605,14.248-19.752c7.472-29.79,26.142-51.252,26.142-51.252
	C420.418,121.288,406.794,127.441,398.047,134.237z"/>
<path style="fill:#57565C;" d="M427.164,146.157c-3.735-2.062-5.09-6.762-3.028-10.499L437.4,111.64
	c2.061-3.733,6.762-5.09,10.499-3.028c3.735,2.062,5.09,6.762,3.028,10.499l-13.264,24.019
	C434.606,148.245,428.348,146.811,427.164,146.157z"/>
<path style="fill:#AA6100;" d="M33.815,259.141v84.086C33.815,436.052,109.763,512,202.587,512h106.826
	c92.824,0,168.773-75.948,168.773-168.772v-84.086H33.815z"/>
<path style="fill:#9A4C00;" d="M186.453,343.228v-84.086H33.815v84.086C33.815,436.053,109.763,512,202.587,512h106.826
	c7.767,0,15.41-0.543,22.906-1.572C250.227,499.162,186.453,428.287,186.453,343.228z"/>
<path style="fill:#FFE477;" d="M33.815,259.141v68.634l42.403,23.594c8.17,4.546,18.11,4.546,26.28,0l29.266-16.283
	c8.17-4.546,18.11-4.546,26.28,0l29.262,16.282c8.17,4.546,18.111,4.546,26.281,0l29.263-16.283c8.17-4.546,18.11-4.546,26.28,0
	l29.266,16.284c8.17,4.546,18.11,4.546,26.28,0l29.265-16.284c8.169-4.546,18.109-4.546,26.279-0.001l29.274,16.286
	c8.169,4.545,18.107,4.545,26.277,0l42.414-23.596V259.14H33.815V259.141z"/>
<g>
	<path style="fill:#FFD422;" d="M186.453,259.141H33.815v68.634l42.403,23.594c8.17,4.546,18.11,4.546,26.28,0l29.266-16.283
		c8.17-4.546,18.11-4.546,26.28,0l28.596,15.911c-0.118-2.577-0.188-5.165-0.188-7.77L186.453,259.141L186.453,259.141z"/>
	<rect x="33.815" y="259.142" style="fill:#FFD422;" width="444.369" height="51.993"/>
</g>
<rect x="33.815" y="259.142" style="fill:#EEBF00;" width="152.642" height="51.993"/>
<path style="fill:#CC7400;" d="M480.425,285.507H31.575c-13.856,0-25.192-11.336-25.192-25.192l0,0
	c0-13.856,11.336-25.192,25.192-25.192h448.85c13.856,0,25.192,11.336,25.192,25.192l0,0
	C505.617,274.169,494.281,285.507,480.425,285.507z"/>
<path style="fill:#AA6100;" d="M162.547,260.315L162.547,260.315c0-13.856,11.336-25.192,25.192-25.192H31.575
	c-13.856,0-25.192,11.336-25.192,25.192l0,0c0,13.856,11.336,25.192,25.192,25.192h156.164
	C173.883,285.507,162.547,274.169,162.547,260.315z"/>
<g>
</g>
<g>
</g>
<g>
</g>
<g>
</g>
<g>
</g>
<g>
</g>
<g>
</g>
<g>
</g>
<g>
</g>
<g>
</g>
<g>
</g>
<g>
</g>
<g>
</g>
<g>
</g>
<g>
</g>
</svg>
